G04 #@! TF.GenerationSoftware,KiCad,Pcbnew,9.0.2*
G04 #@! TF.CreationDate,2025-05-29T13:52:01-05:00*
G04 #@! TF.ProjectId,SAO_Pin,53414f5f-5069-46e2-9e6b-696361645f70,1*
G04 #@! TF.SameCoordinates,Original*
G04 #@! TF.FileFunction,Legend,Top*
G04 #@! TF.FilePolarity,Positive*
%FSLAX46Y46*%
G04 Gerber Fmt 4.6, Leading zero omitted, Abs format (unit mm)*
G04 Created by KiCad (PCBNEW 9.0.2) date 2025-05-29 13:52:01*
%MOMM*%
%LPD*%
G01*
G04 APERTURE LIST*
%ADD10C,0.100000*%
%ADD11C,0.200000*%
%ADD12R,1.700000X1.700000*%
%ADD13C,1.700000*%
%ADD14C,2.200000*%
%ADD15R,1.727200X1.727200*%
%ADD16C,1.727200*%
%ADD17O,1.727200X1.727200*%
G04 APERTURE END LIST*
D10*
X143308646Y-104202507D02*
X143308646Y-103602507D01*
X143308646Y-103602507D02*
X143537217Y-103602507D01*
X143537217Y-103602507D02*
X143594360Y-103631078D01*
X143594360Y-103631078D02*
X143622931Y-103659650D01*
X143622931Y-103659650D02*
X143651503Y-103716793D01*
X143651503Y-103716793D02*
X143651503Y-103802507D01*
X143651503Y-103802507D02*
X143622931Y-103859650D01*
X143622931Y-103859650D02*
X143594360Y-103888221D01*
X143594360Y-103888221D02*
X143537217Y-103916793D01*
X143537217Y-103916793D02*
X143308646Y-103916793D01*
X143994360Y-104202507D02*
X143937217Y-104173936D01*
X143937217Y-104173936D02*
X143908646Y-104116793D01*
X143908646Y-104116793D02*
X143908646Y-103602507D01*
X144480075Y-104202507D02*
X144480075Y-103888221D01*
X144480075Y-103888221D02*
X144451503Y-103831078D01*
X144451503Y-103831078D02*
X144394360Y-103802507D01*
X144394360Y-103802507D02*
X144280075Y-103802507D01*
X144280075Y-103802507D02*
X144222932Y-103831078D01*
X144480075Y-104173936D02*
X144422932Y-104202507D01*
X144422932Y-104202507D02*
X144280075Y-104202507D01*
X144280075Y-104202507D02*
X144222932Y-104173936D01*
X144222932Y-104173936D02*
X144194360Y-104116793D01*
X144194360Y-104116793D02*
X144194360Y-104059650D01*
X144194360Y-104059650D02*
X144222932Y-104002507D01*
X144222932Y-104002507D02*
X144280075Y-103973936D01*
X144280075Y-103973936D02*
X144422932Y-103973936D01*
X144422932Y-103973936D02*
X144480075Y-103945364D01*
X145022932Y-104173936D02*
X144965789Y-104202507D01*
X144965789Y-104202507D02*
X144851503Y-104202507D01*
X144851503Y-104202507D02*
X144794360Y-104173936D01*
X144794360Y-104173936D02*
X144765789Y-104145364D01*
X144765789Y-104145364D02*
X144737217Y-104088221D01*
X144737217Y-104088221D02*
X144737217Y-103916793D01*
X144737217Y-103916793D02*
X144765789Y-103859650D01*
X144765789Y-103859650D02*
X144794360Y-103831078D01*
X144794360Y-103831078D02*
X144851503Y-103802507D01*
X144851503Y-103802507D02*
X144965789Y-103802507D01*
X144965789Y-103802507D02*
X145022932Y-103831078D01*
X145508646Y-104173936D02*
X145451503Y-104202507D01*
X145451503Y-104202507D02*
X145337218Y-104202507D01*
X145337218Y-104202507D02*
X145280075Y-104173936D01*
X145280075Y-104173936D02*
X145251503Y-104116793D01*
X145251503Y-104116793D02*
X145251503Y-103888221D01*
X145251503Y-103888221D02*
X145280075Y-103831078D01*
X145280075Y-103831078D02*
X145337218Y-103802507D01*
X145337218Y-103802507D02*
X145451503Y-103802507D01*
X145451503Y-103802507D02*
X145508646Y-103831078D01*
X145508646Y-103831078D02*
X145537218Y-103888221D01*
X145537218Y-103888221D02*
X145537218Y-103945364D01*
X145537218Y-103945364D02*
X145251503Y-104002507D01*
X143280074Y-105139902D02*
X143365789Y-105168473D01*
X143365789Y-105168473D02*
X143508646Y-105168473D01*
X143508646Y-105168473D02*
X143565789Y-105139902D01*
X143565789Y-105139902D02*
X143594360Y-105111330D01*
X143594360Y-105111330D02*
X143622931Y-105054187D01*
X143622931Y-105054187D02*
X143622931Y-104997044D01*
X143622931Y-104997044D02*
X143594360Y-104939902D01*
X143594360Y-104939902D02*
X143565789Y-104911330D01*
X143565789Y-104911330D02*
X143508646Y-104882759D01*
X143508646Y-104882759D02*
X143394360Y-104854187D01*
X143394360Y-104854187D02*
X143337217Y-104825616D01*
X143337217Y-104825616D02*
X143308646Y-104797044D01*
X143308646Y-104797044D02*
X143280074Y-104739902D01*
X143280074Y-104739902D02*
X143280074Y-104682759D01*
X143280074Y-104682759D02*
X143308646Y-104625616D01*
X143308646Y-104625616D02*
X143337217Y-104597044D01*
X143337217Y-104597044D02*
X143394360Y-104568473D01*
X143394360Y-104568473D02*
X143537217Y-104568473D01*
X143537217Y-104568473D02*
X143622931Y-104597044D01*
X143851503Y-104997044D02*
X144137218Y-104997044D01*
X143794360Y-105168473D02*
X143994360Y-104568473D01*
X143994360Y-104568473D02*
X144194360Y-105168473D01*
X144508646Y-104568473D02*
X144622932Y-104568473D01*
X144622932Y-104568473D02*
X144680075Y-104597044D01*
X144680075Y-104597044D02*
X144737218Y-104654187D01*
X144737218Y-104654187D02*
X144765789Y-104768473D01*
X144765789Y-104768473D02*
X144765789Y-104968473D01*
X144765789Y-104968473D02*
X144737218Y-105082759D01*
X144737218Y-105082759D02*
X144680075Y-105139902D01*
X144680075Y-105139902D02*
X144622932Y-105168473D01*
X144622932Y-105168473D02*
X144508646Y-105168473D01*
X144508646Y-105168473D02*
X144451504Y-105139902D01*
X144451504Y-105139902D02*
X144394361Y-105082759D01*
X144394361Y-105082759D02*
X144365789Y-104968473D01*
X144365789Y-104968473D02*
X144365789Y-104768473D01*
X144365789Y-104768473D02*
X144394361Y-104654187D01*
X144394361Y-104654187D02*
X144451504Y-104597044D01*
X144451504Y-104597044D02*
X144508646Y-104568473D01*
X143422931Y-105534439D02*
X143537217Y-105534439D01*
X143537217Y-105534439D02*
X143594360Y-105563010D01*
X143594360Y-105563010D02*
X143651503Y-105620153D01*
X143651503Y-105620153D02*
X143680074Y-105734439D01*
X143680074Y-105734439D02*
X143680074Y-105934439D01*
X143680074Y-105934439D02*
X143651503Y-106048725D01*
X143651503Y-106048725D02*
X143594360Y-106105868D01*
X143594360Y-106105868D02*
X143537217Y-106134439D01*
X143537217Y-106134439D02*
X143422931Y-106134439D01*
X143422931Y-106134439D02*
X143365789Y-106105868D01*
X143365789Y-106105868D02*
X143308646Y-106048725D01*
X143308646Y-106048725D02*
X143280074Y-105934439D01*
X143280074Y-105934439D02*
X143280074Y-105734439D01*
X143280074Y-105734439D02*
X143308646Y-105620153D01*
X143308646Y-105620153D02*
X143365789Y-105563010D01*
X143365789Y-105563010D02*
X143422931Y-105534439D01*
X143937217Y-105734439D02*
X143937217Y-106134439D01*
X143937217Y-105791582D02*
X143965788Y-105763010D01*
X143965788Y-105763010D02*
X144022931Y-105734439D01*
X144022931Y-105734439D02*
X144108645Y-105734439D01*
X144108645Y-105734439D02*
X144165788Y-105763010D01*
X144165788Y-105763010D02*
X144194360Y-105820153D01*
X144194360Y-105820153D02*
X144194360Y-106134439D01*
X143222931Y-106500405D02*
X143565789Y-106500405D01*
X143394360Y-107100405D02*
X143394360Y-106500405D01*
X143765789Y-107100405D02*
X143765789Y-106500405D01*
X144022932Y-107100405D02*
X144022932Y-106786119D01*
X144022932Y-106786119D02*
X143994360Y-106728976D01*
X143994360Y-106728976D02*
X143937217Y-106700405D01*
X143937217Y-106700405D02*
X143851503Y-106700405D01*
X143851503Y-106700405D02*
X143794360Y-106728976D01*
X143794360Y-106728976D02*
X143765789Y-106757548D01*
X144308646Y-107100405D02*
X144308646Y-106700405D01*
X144308646Y-106500405D02*
X144280074Y-106528976D01*
X144280074Y-106528976D02*
X144308646Y-106557548D01*
X144308646Y-106557548D02*
X144337217Y-106528976D01*
X144337217Y-106528976D02*
X144308646Y-106500405D01*
X144308646Y-106500405D02*
X144308646Y-106557548D01*
X144565788Y-107071834D02*
X144622931Y-107100405D01*
X144622931Y-107100405D02*
X144737217Y-107100405D01*
X144737217Y-107100405D02*
X144794360Y-107071834D01*
X144794360Y-107071834D02*
X144822931Y-107014691D01*
X144822931Y-107014691D02*
X144822931Y-106986119D01*
X144822931Y-106986119D02*
X144794360Y-106928976D01*
X144794360Y-106928976D02*
X144737217Y-106900405D01*
X144737217Y-106900405D02*
X144651503Y-106900405D01*
X144651503Y-106900405D02*
X144594360Y-106871834D01*
X144594360Y-106871834D02*
X144565788Y-106814691D01*
X144565788Y-106814691D02*
X144565788Y-106786119D01*
X144565788Y-106786119D02*
X144594360Y-106728976D01*
X144594360Y-106728976D02*
X144651503Y-106700405D01*
X144651503Y-106700405D02*
X144737217Y-106700405D01*
X144737217Y-106700405D02*
X144794360Y-106728976D01*
X143280074Y-108037800D02*
X143365789Y-108066371D01*
X143365789Y-108066371D02*
X143508646Y-108066371D01*
X143508646Y-108066371D02*
X143565789Y-108037800D01*
X143565789Y-108037800D02*
X143594360Y-108009228D01*
X143594360Y-108009228D02*
X143622931Y-107952085D01*
X143622931Y-107952085D02*
X143622931Y-107894942D01*
X143622931Y-107894942D02*
X143594360Y-107837800D01*
X143594360Y-107837800D02*
X143565789Y-107809228D01*
X143565789Y-107809228D02*
X143508646Y-107780657D01*
X143508646Y-107780657D02*
X143394360Y-107752085D01*
X143394360Y-107752085D02*
X143337217Y-107723514D01*
X143337217Y-107723514D02*
X143308646Y-107694942D01*
X143308646Y-107694942D02*
X143280074Y-107637800D01*
X143280074Y-107637800D02*
X143280074Y-107580657D01*
X143280074Y-107580657D02*
X143308646Y-107523514D01*
X143308646Y-107523514D02*
X143337217Y-107494942D01*
X143337217Y-107494942D02*
X143394360Y-107466371D01*
X143394360Y-107466371D02*
X143537217Y-107466371D01*
X143537217Y-107466371D02*
X143622931Y-107494942D01*
X143880075Y-108066371D02*
X143880075Y-107666371D01*
X143880075Y-107466371D02*
X143851503Y-107494942D01*
X143851503Y-107494942D02*
X143880075Y-107523514D01*
X143880075Y-107523514D02*
X143908646Y-107494942D01*
X143908646Y-107494942D02*
X143880075Y-107466371D01*
X143880075Y-107466371D02*
X143880075Y-107523514D01*
X144422932Y-108066371D02*
X144422932Y-107466371D01*
X144422932Y-108037800D02*
X144365789Y-108066371D01*
X144365789Y-108066371D02*
X144251503Y-108066371D01*
X144251503Y-108066371D02*
X144194360Y-108037800D01*
X144194360Y-108037800D02*
X144165789Y-108009228D01*
X144165789Y-108009228D02*
X144137217Y-107952085D01*
X144137217Y-107952085D02*
X144137217Y-107780657D01*
X144137217Y-107780657D02*
X144165789Y-107723514D01*
X144165789Y-107723514D02*
X144194360Y-107694942D01*
X144194360Y-107694942D02*
X144251503Y-107666371D01*
X144251503Y-107666371D02*
X144365789Y-107666371D01*
X144365789Y-107666371D02*
X144422932Y-107694942D01*
X144937217Y-108037800D02*
X144880074Y-108066371D01*
X144880074Y-108066371D02*
X144765789Y-108066371D01*
X144765789Y-108066371D02*
X144708646Y-108037800D01*
X144708646Y-108037800D02*
X144680074Y-107980657D01*
X144680074Y-107980657D02*
X144680074Y-107752085D01*
X144680074Y-107752085D02*
X144708646Y-107694942D01*
X144708646Y-107694942D02*
X144765789Y-107666371D01*
X144765789Y-107666371D02*
X144880074Y-107666371D01*
X144880074Y-107666371D02*
X144937217Y-107694942D01*
X144937217Y-107694942D02*
X144965789Y-107752085D01*
X144965789Y-107752085D02*
X144965789Y-107809228D01*
X144965789Y-107809228D02*
X144680074Y-107866371D01*
X134302857Y-107215942D02*
X134245715Y-107187371D01*
X134245715Y-107187371D02*
X134160000Y-107187371D01*
X134160000Y-107187371D02*
X134074286Y-107215942D01*
X134074286Y-107215942D02*
X134017143Y-107273085D01*
X134017143Y-107273085D02*
X133988572Y-107330228D01*
X133988572Y-107330228D02*
X133960000Y-107444514D01*
X133960000Y-107444514D02*
X133960000Y-107530228D01*
X133960000Y-107530228D02*
X133988572Y-107644514D01*
X133988572Y-107644514D02*
X134017143Y-107701657D01*
X134017143Y-107701657D02*
X134074286Y-107758800D01*
X134074286Y-107758800D02*
X134160000Y-107787371D01*
X134160000Y-107787371D02*
X134217143Y-107787371D01*
X134217143Y-107787371D02*
X134302857Y-107758800D01*
X134302857Y-107758800D02*
X134331429Y-107730228D01*
X134331429Y-107730228D02*
X134331429Y-107530228D01*
X134331429Y-107530228D02*
X134217143Y-107530228D01*
X134588572Y-107787371D02*
X134588572Y-107187371D01*
X134588572Y-107187371D02*
X134931429Y-107787371D01*
X134931429Y-107787371D02*
X134931429Y-107187371D01*
X135217143Y-107787371D02*
X135217143Y-107187371D01*
X135217143Y-107187371D02*
X135360000Y-107187371D01*
X135360000Y-107187371D02*
X135445714Y-107215942D01*
X135445714Y-107215942D02*
X135502857Y-107273085D01*
X135502857Y-107273085D02*
X135531428Y-107330228D01*
X135531428Y-107330228D02*
X135560000Y-107444514D01*
X135560000Y-107444514D02*
X135560000Y-107530228D01*
X135560000Y-107530228D02*
X135531428Y-107644514D01*
X135531428Y-107644514D02*
X135502857Y-107701657D01*
X135502857Y-107701657D02*
X135445714Y-107758800D01*
X135445714Y-107758800D02*
X135360000Y-107787371D01*
X135360000Y-107787371D02*
X135217143Y-107787371D01*
X133959999Y-104587371D02*
X134159999Y-105187371D01*
X134159999Y-105187371D02*
X134359999Y-104587371D01*
X134902857Y-105130228D02*
X134874285Y-105158800D01*
X134874285Y-105158800D02*
X134788571Y-105187371D01*
X134788571Y-105187371D02*
X134731428Y-105187371D01*
X134731428Y-105187371D02*
X134645714Y-105158800D01*
X134645714Y-105158800D02*
X134588571Y-105101657D01*
X134588571Y-105101657D02*
X134560000Y-105044514D01*
X134560000Y-105044514D02*
X134531428Y-104930228D01*
X134531428Y-104930228D02*
X134531428Y-104844514D01*
X134531428Y-104844514D02*
X134560000Y-104730228D01*
X134560000Y-104730228D02*
X134588571Y-104673085D01*
X134588571Y-104673085D02*
X134645714Y-104615942D01*
X134645714Y-104615942D02*
X134731428Y-104587371D01*
X134731428Y-104587371D02*
X134788571Y-104587371D01*
X134788571Y-104587371D02*
X134874285Y-104615942D01*
X134874285Y-104615942D02*
X134902857Y-104644514D01*
X135502857Y-105130228D02*
X135474285Y-105158800D01*
X135474285Y-105158800D02*
X135388571Y-105187371D01*
X135388571Y-105187371D02*
X135331428Y-105187371D01*
X135331428Y-105187371D02*
X135245714Y-105158800D01*
X135245714Y-105158800D02*
X135188571Y-105101657D01*
X135188571Y-105101657D02*
X135160000Y-105044514D01*
X135160000Y-105044514D02*
X135131428Y-104930228D01*
X135131428Y-104930228D02*
X135131428Y-104844514D01*
X135131428Y-104844514D02*
X135160000Y-104730228D01*
X135160000Y-104730228D02*
X135188571Y-104673085D01*
X135188571Y-104673085D02*
X135245714Y-104615942D01*
X135245714Y-104615942D02*
X135331428Y-104587371D01*
X135331428Y-104587371D02*
X135388571Y-104587371D01*
X135388571Y-104587371D02*
X135474285Y-104615942D01*
X135474285Y-104615942D02*
X135502857Y-104644514D01*
D11*
X133160000Y-103265000D02*
X145760000Y-103265000D01*
X133160000Y-109165000D02*
X133160000Y-103265000D01*
X145760000Y-103265000D02*
X145760000Y-109165000D01*
X145760000Y-109165000D02*
X133160000Y-109165000D01*
D10*
X141809500Y-103154300D02*
X137110500Y-103154300D01*
X137110500Y-102511300D01*
X141809500Y-102511300D01*
X141809500Y-103154300D01*
G36*
X141809500Y-103154300D02*
G01*
X137110500Y-103154300D01*
X137110500Y-102511300D01*
X141809500Y-102511300D01*
X141809500Y-103154300D01*
G37*
%LPC*%
D12*
X150545000Y-92800000D03*
D13*
X130545000Y-92800000D03*
D14*
X136300000Y-73150000D03*
X143100000Y-73150000D03*
D15*
X136980000Y-104965000D03*
D16*
X136980000Y-107505000D03*
D17*
X139520000Y-104965000D03*
X139520000Y-107505000D03*
D16*
X142060000Y-104965000D03*
X142060000Y-107505000D03*
%LPD*%
M02*
