%TF.GenerationSoftware,KiCad,Pcbnew,9.0.2*%
%TF.CreationDate,2025-05-22T21:49:02-05:00*%
%TF.ProjectId,SAO_Pin,53414f5f-5069-46e2-9e6b-696361645f70,1*%
%TF.SameCoordinates,Original*%
%TF.FileFunction,Legend,Bot*%
%TF.FilePolarity,Positive*%
%FSLAX46Y46*%
G04 Gerber Fmt 4.6, Leading zero omitted, Abs format (unit mm)*
G04 Created by KiCad (PCBNEW 9.0.2) date 2025-05-22 21:49:02*
%MOMM*%
%LPD*%
G01*
G04 APERTURE LIST*
%ADD10C,0.150000*%
%ADD11C,0.300000*%
%ADD12C,0.100000*%
%ADD13C,0.700000*%
%ADD14C,0.500000*%
%ADD15C,0.120000*%
G04 APERTURE END LIST*
D10*
X143012714Y-103055009D02*
X142869857Y-103102628D01*
X142869857Y-103102628D02*
X142822238Y-103150247D01*
X142822238Y-103150247D02*
X142774619Y-103245485D01*
X142774619Y-103245485D02*
X142774619Y-103388342D01*
X142774619Y-103388342D02*
X142822238Y-103483580D01*
X142822238Y-103483580D02*
X142869857Y-103531200D01*
X142869857Y-103531200D02*
X142965095Y-103578819D01*
X142965095Y-103578819D02*
X143346047Y-103578819D01*
X143346047Y-103578819D02*
X143346047Y-102578819D01*
X143346047Y-102578819D02*
X143012714Y-102578819D01*
X143012714Y-102578819D02*
X142917476Y-102626438D01*
X142917476Y-102626438D02*
X142869857Y-102674057D01*
X142869857Y-102674057D02*
X142822238Y-102769295D01*
X142822238Y-102769295D02*
X142822238Y-102864533D01*
X142822238Y-102864533D02*
X142869857Y-102959771D01*
X142869857Y-102959771D02*
X142917476Y-103007390D01*
X142917476Y-103007390D02*
X143012714Y-103055009D01*
X143012714Y-103055009D02*
X143346047Y-103055009D01*
X142488904Y-102578819D02*
X141917476Y-102578819D01*
X142203190Y-103578819D02*
X142203190Y-102578819D01*
X141060333Y-103578819D02*
X141631761Y-103578819D01*
X141346047Y-103578819D02*
X141346047Y-102578819D01*
X141346047Y-102578819D02*
X141441285Y-102721676D01*
X141441285Y-102721676D02*
X141536523Y-102816914D01*
X141536523Y-102816914D02*
X141631761Y-102864533D01*
D11*
X151624904Y-94254733D02*
X150101095Y-94254733D01*
X150862999Y-95016638D02*
X150862999Y-93492828D01*
X138162904Y-94254733D02*
X136639095Y-94254733D01*
D10*
X144449238Y-84941580D02*
X144496857Y-84989200D01*
X144496857Y-84989200D02*
X144639714Y-85036819D01*
X144639714Y-85036819D02*
X144734952Y-85036819D01*
X144734952Y-85036819D02*
X144877809Y-84989200D01*
X144877809Y-84989200D02*
X144973047Y-84893961D01*
X144973047Y-84893961D02*
X145020666Y-84798723D01*
X145020666Y-84798723D02*
X145068285Y-84608247D01*
X145068285Y-84608247D02*
X145068285Y-84465390D01*
X145068285Y-84465390D02*
X145020666Y-84274914D01*
X145020666Y-84274914D02*
X144973047Y-84179676D01*
X144973047Y-84179676D02*
X144877809Y-84084438D01*
X144877809Y-84084438D02*
X144734952Y-84036819D01*
X144734952Y-84036819D02*
X144639714Y-84036819D01*
X144639714Y-84036819D02*
X144496857Y-84084438D01*
X144496857Y-84084438D02*
X144449238Y-84132057D01*
X143449238Y-85036819D02*
X143782571Y-84560628D01*
X144020666Y-85036819D02*
X144020666Y-84036819D01*
X144020666Y-84036819D02*
X143639714Y-84036819D01*
X143639714Y-84036819D02*
X143544476Y-84084438D01*
X143544476Y-84084438D02*
X143496857Y-84132057D01*
X143496857Y-84132057D02*
X143449238Y-84227295D01*
X143449238Y-84227295D02*
X143449238Y-84370152D01*
X143449238Y-84370152D02*
X143496857Y-84465390D01*
X143496857Y-84465390D02*
X143544476Y-84513009D01*
X143544476Y-84513009D02*
X143639714Y-84560628D01*
X143639714Y-84560628D02*
X144020666Y-84560628D01*
X143068285Y-84132057D02*
X143020666Y-84084438D01*
X143020666Y-84084438D02*
X142925428Y-84036819D01*
X142925428Y-84036819D02*
X142687333Y-84036819D01*
X142687333Y-84036819D02*
X142592095Y-84084438D01*
X142592095Y-84084438D02*
X142544476Y-84132057D01*
X142544476Y-84132057D02*
X142496857Y-84227295D01*
X142496857Y-84227295D02*
X142496857Y-84322533D01*
X142496857Y-84322533D02*
X142544476Y-84465390D01*
X142544476Y-84465390D02*
X143115904Y-85036819D01*
X143115904Y-85036819D02*
X142496857Y-85036819D01*
X141877809Y-84036819D02*
X141782571Y-84036819D01*
X141782571Y-84036819D02*
X141687333Y-84084438D01*
X141687333Y-84084438D02*
X141639714Y-84132057D01*
X141639714Y-84132057D02*
X141592095Y-84227295D01*
X141592095Y-84227295D02*
X141544476Y-84417771D01*
X141544476Y-84417771D02*
X141544476Y-84655866D01*
X141544476Y-84655866D02*
X141592095Y-84846342D01*
X141592095Y-84846342D02*
X141639714Y-84941580D01*
X141639714Y-84941580D02*
X141687333Y-84989200D01*
X141687333Y-84989200D02*
X141782571Y-85036819D01*
X141782571Y-85036819D02*
X141877809Y-85036819D01*
X141877809Y-85036819D02*
X141973047Y-84989200D01*
X141973047Y-84989200D02*
X142020666Y-84941580D01*
X142020666Y-84941580D02*
X142068285Y-84846342D01*
X142068285Y-84846342D02*
X142115904Y-84655866D01*
X142115904Y-84655866D02*
X142115904Y-84417771D01*
X142115904Y-84417771D02*
X142068285Y-84227295D01*
X142068285Y-84227295D02*
X142020666Y-84132057D01*
X142020666Y-84132057D02*
X141973047Y-84084438D01*
X141973047Y-84084438D02*
X141877809Y-84036819D01*
X141211142Y-84036819D02*
X140592095Y-84036819D01*
X140592095Y-84036819D02*
X140925428Y-84417771D01*
X140925428Y-84417771D02*
X140782571Y-84417771D01*
X140782571Y-84417771D02*
X140687333Y-84465390D01*
X140687333Y-84465390D02*
X140639714Y-84513009D01*
X140639714Y-84513009D02*
X140592095Y-84608247D01*
X140592095Y-84608247D02*
X140592095Y-84846342D01*
X140592095Y-84846342D02*
X140639714Y-84941580D01*
X140639714Y-84941580D02*
X140687333Y-84989200D01*
X140687333Y-84989200D02*
X140782571Y-85036819D01*
X140782571Y-85036819D02*
X141068285Y-85036819D01*
X141068285Y-85036819D02*
X141163523Y-84989200D01*
X141163523Y-84989200D02*
X141211142Y-84941580D01*
X140211142Y-84132057D02*
X140163523Y-84084438D01*
X140163523Y-84084438D02*
X140068285Y-84036819D01*
X140068285Y-84036819D02*
X139830190Y-84036819D01*
X139830190Y-84036819D02*
X139734952Y-84084438D01*
X139734952Y-84084438D02*
X139687333Y-84132057D01*
X139687333Y-84132057D02*
X139639714Y-84227295D01*
X139639714Y-84227295D02*
X139639714Y-84322533D01*
X139639714Y-84322533D02*
X139687333Y-84465390D01*
X139687333Y-84465390D02*
X140258761Y-85036819D01*
X140258761Y-85036819D02*
X139639714Y-85036819D01*
X139231428Y-116494878D02*
X139302857Y-116459164D01*
X139302857Y-116459164D02*
X139409999Y-116459164D01*
X139409999Y-116459164D02*
X139517142Y-116494878D01*
X139517142Y-116494878D02*
X139588571Y-116566307D01*
X139588571Y-116566307D02*
X139624285Y-116637735D01*
X139624285Y-116637735D02*
X139659999Y-116780592D01*
X139659999Y-116780592D02*
X139659999Y-116887735D01*
X139659999Y-116887735D02*
X139624285Y-117030592D01*
X139624285Y-117030592D02*
X139588571Y-117102021D01*
X139588571Y-117102021D02*
X139517142Y-117173450D01*
X139517142Y-117173450D02*
X139409999Y-117209164D01*
X139409999Y-117209164D02*
X139338571Y-117209164D01*
X139338571Y-117209164D02*
X139231428Y-117173450D01*
X139231428Y-117173450D02*
X139195714Y-117137735D01*
X139195714Y-117137735D02*
X139195714Y-116887735D01*
X139195714Y-116887735D02*
X139338571Y-116887735D01*
X138874285Y-117209164D02*
X138874285Y-116459164D01*
X138874285Y-116459164D02*
X138445714Y-117209164D01*
X138445714Y-117209164D02*
X138445714Y-116459164D01*
X138088571Y-117209164D02*
X138088571Y-116459164D01*
X138088571Y-116459164D02*
X137910000Y-116459164D01*
X137910000Y-116459164D02*
X137802857Y-116494878D01*
X137802857Y-116494878D02*
X137731428Y-116566307D01*
X137731428Y-116566307D02*
X137695714Y-116637735D01*
X137695714Y-116637735D02*
X137660000Y-116780592D01*
X137660000Y-116780592D02*
X137660000Y-116887735D01*
X137660000Y-116887735D02*
X137695714Y-117030592D01*
X137695714Y-117030592D02*
X137731428Y-117102021D01*
X137731428Y-117102021D02*
X137802857Y-117173450D01*
X137802857Y-117173450D02*
X137910000Y-117209164D01*
X137910000Y-117209164D02*
X138088571Y-117209164D01*
D12*
X148378633Y-114553334D02*
X148378633Y-114686667D01*
X148378633Y-114686667D02*
X148411966Y-114753334D01*
X148411966Y-114753334D02*
X148478633Y-114820000D01*
X148478633Y-114820000D02*
X148611966Y-114853334D01*
X148611966Y-114853334D02*
X148845300Y-114853334D01*
X148845300Y-114853334D02*
X148978633Y-114820000D01*
X148978633Y-114820000D02*
X149045300Y-114753334D01*
X149045300Y-114753334D02*
X149078633Y-114686667D01*
X149078633Y-114686667D02*
X149078633Y-114553334D01*
X149078633Y-114553334D02*
X149045300Y-114486667D01*
X149045300Y-114486667D02*
X148978633Y-114420000D01*
X148978633Y-114420000D02*
X148845300Y-114386667D01*
X148845300Y-114386667D02*
X148611966Y-114386667D01*
X148611966Y-114386667D02*
X148478633Y-114420000D01*
X148478633Y-114420000D02*
X148411966Y-114486667D01*
X148411966Y-114486667D02*
X148378633Y-114553334D01*
X149078633Y-115153333D02*
X148378633Y-115153333D01*
X148378633Y-115153333D02*
X149078633Y-115553333D01*
X149078633Y-115553333D02*
X148378633Y-115553333D01*
X149078633Y-116220000D02*
X149078633Y-115886666D01*
X149078633Y-115886666D02*
X148378633Y-115886666D01*
X148745300Y-116586667D02*
X149078633Y-116586667D01*
X148378633Y-116353333D02*
X148745300Y-116586667D01*
X148745300Y-116586667D02*
X148378633Y-116820000D01*
D10*
X144350476Y-113094200D02*
X144236190Y-113132295D01*
X144236190Y-113132295D02*
X144045714Y-113132295D01*
X144045714Y-113132295D02*
X143969523Y-113094200D01*
X143969523Y-113094200D02*
X143931428Y-113056104D01*
X143931428Y-113056104D02*
X143893333Y-112979914D01*
X143893333Y-112979914D02*
X143893333Y-112903723D01*
X143893333Y-112903723D02*
X143931428Y-112827533D01*
X143931428Y-112827533D02*
X143969523Y-112789438D01*
X143969523Y-112789438D02*
X144045714Y-112751342D01*
X144045714Y-112751342D02*
X144198095Y-112713247D01*
X144198095Y-112713247D02*
X144274285Y-112675152D01*
X144274285Y-112675152D02*
X144312380Y-112637057D01*
X144312380Y-112637057D02*
X144350476Y-112560866D01*
X144350476Y-112560866D02*
X144350476Y-112484676D01*
X144350476Y-112484676D02*
X144312380Y-112408485D01*
X144312380Y-112408485D02*
X144274285Y-112370390D01*
X144274285Y-112370390D02*
X144198095Y-112332295D01*
X144198095Y-112332295D02*
X144007618Y-112332295D01*
X144007618Y-112332295D02*
X143893333Y-112370390D01*
X143588571Y-112903723D02*
X143207618Y-112903723D01*
X143664761Y-113132295D02*
X143398094Y-112332295D01*
X143398094Y-112332295D02*
X143131428Y-113132295D01*
X142712380Y-112332295D02*
X142559999Y-112332295D01*
X142559999Y-112332295D02*
X142483809Y-112370390D01*
X142483809Y-112370390D02*
X142407618Y-112446580D01*
X142407618Y-112446580D02*
X142369523Y-112598961D01*
X142369523Y-112598961D02*
X142369523Y-112865628D01*
X142369523Y-112865628D02*
X142407618Y-113018009D01*
X142407618Y-113018009D02*
X142483809Y-113094200D01*
X142483809Y-113094200D02*
X142559999Y-113132295D01*
X142559999Y-113132295D02*
X142712380Y-113132295D01*
X142712380Y-113132295D02*
X142788571Y-113094200D01*
X142788571Y-113094200D02*
X142864761Y-113018009D01*
X142864761Y-113018009D02*
X142902857Y-112865628D01*
X142902857Y-112865628D02*
X142902857Y-112598961D01*
X142902857Y-112598961D02*
X142864761Y-112446580D01*
X142864761Y-112446580D02*
X142788571Y-112370390D01*
X142788571Y-112370390D02*
X142712380Y-112332295D01*
D12*
X147978633Y-113953333D02*
X147278633Y-113953333D01*
X147278633Y-113953333D02*
X147278633Y-114220000D01*
X147278633Y-114220000D02*
X147311966Y-114286667D01*
X147311966Y-114286667D02*
X147345300Y-114320000D01*
X147345300Y-114320000D02*
X147411966Y-114353333D01*
X147411966Y-114353333D02*
X147511966Y-114353333D01*
X147511966Y-114353333D02*
X147578633Y-114320000D01*
X147578633Y-114320000D02*
X147611966Y-114286667D01*
X147611966Y-114286667D02*
X147645300Y-114220000D01*
X147645300Y-114220000D02*
X147645300Y-113953333D01*
X147278633Y-114786667D02*
X147278633Y-114920000D01*
X147278633Y-114920000D02*
X147311966Y-114986667D01*
X147311966Y-114986667D02*
X147378633Y-115053333D01*
X147378633Y-115053333D02*
X147511966Y-115086667D01*
X147511966Y-115086667D02*
X147745300Y-115086667D01*
X147745300Y-115086667D02*
X147878633Y-115053333D01*
X147878633Y-115053333D02*
X147945300Y-114986667D01*
X147945300Y-114986667D02*
X147978633Y-114920000D01*
X147978633Y-114920000D02*
X147978633Y-114786667D01*
X147978633Y-114786667D02*
X147945300Y-114720000D01*
X147945300Y-114720000D02*
X147878633Y-114653333D01*
X147878633Y-114653333D02*
X147745300Y-114620000D01*
X147745300Y-114620000D02*
X147511966Y-114620000D01*
X147511966Y-114620000D02*
X147378633Y-114653333D01*
X147378633Y-114653333D02*
X147311966Y-114720000D01*
X147311966Y-114720000D02*
X147278633Y-114786667D01*
X147278633Y-115320000D02*
X147978633Y-115486666D01*
X147978633Y-115486666D02*
X147478633Y-115620000D01*
X147478633Y-115620000D02*
X147978633Y-115753333D01*
X147978633Y-115753333D02*
X147278633Y-115920000D01*
X147611966Y-116186666D02*
X147611966Y-116420000D01*
X147978633Y-116520000D02*
X147978633Y-116186666D01*
X147978633Y-116186666D02*
X147278633Y-116186666D01*
X147278633Y-116186666D02*
X147278633Y-116520000D01*
X147978633Y-117219999D02*
X147645300Y-116986666D01*
X147978633Y-116819999D02*
X147278633Y-116819999D01*
X147278633Y-116819999D02*
X147278633Y-117086666D01*
X147278633Y-117086666D02*
X147311966Y-117153333D01*
X147311966Y-117153333D02*
X147345300Y-117186666D01*
X147345300Y-117186666D02*
X147411966Y-117219999D01*
X147411966Y-117219999D02*
X147511966Y-117219999D01*
X147511966Y-117219999D02*
X147578633Y-117186666D01*
X147578633Y-117186666D02*
X147611966Y-117153333D01*
X147611966Y-117153333D02*
X147645300Y-117086666D01*
X147645300Y-117086666D02*
X147645300Y-116819999D01*
D10*
X139659999Y-113859164D02*
X139409999Y-114609164D01*
X139409999Y-114609164D02*
X139159999Y-113859164D01*
X138481428Y-114537735D02*
X138517142Y-114573450D01*
X138517142Y-114573450D02*
X138624285Y-114609164D01*
X138624285Y-114609164D02*
X138695713Y-114609164D01*
X138695713Y-114609164D02*
X138802856Y-114573450D01*
X138802856Y-114573450D02*
X138874285Y-114502021D01*
X138874285Y-114502021D02*
X138909999Y-114430592D01*
X138909999Y-114430592D02*
X138945713Y-114287735D01*
X138945713Y-114287735D02*
X138945713Y-114180592D01*
X138945713Y-114180592D02*
X138909999Y-114037735D01*
X138909999Y-114037735D02*
X138874285Y-113966307D01*
X138874285Y-113966307D02*
X138802856Y-113894878D01*
X138802856Y-113894878D02*
X138695713Y-113859164D01*
X138695713Y-113859164D02*
X138624285Y-113859164D01*
X138624285Y-113859164D02*
X138517142Y-113894878D01*
X138517142Y-113894878D02*
X138481428Y-113930592D01*
X137731428Y-114537735D02*
X137767142Y-114573450D01*
X137767142Y-114573450D02*
X137874285Y-114609164D01*
X137874285Y-114609164D02*
X137945713Y-114609164D01*
X137945713Y-114609164D02*
X138052856Y-114573450D01*
X138052856Y-114573450D02*
X138124285Y-114502021D01*
X138124285Y-114502021D02*
X138159999Y-114430592D01*
X138159999Y-114430592D02*
X138195713Y-114287735D01*
X138195713Y-114287735D02*
X138195713Y-114180592D01*
X138195713Y-114180592D02*
X138159999Y-114037735D01*
X138159999Y-114037735D02*
X138124285Y-113966307D01*
X138124285Y-113966307D02*
X138052856Y-113894878D01*
X138052856Y-113894878D02*
X137945713Y-113859164D01*
X137945713Y-113859164D02*
X137874285Y-113859164D01*
X137874285Y-113859164D02*
X137767142Y-113894878D01*
X137767142Y-113894878D02*
X137731428Y-113930592D01*
D13*
%TO.C,BT1*%
X142608000Y-95631000D02*
X142608000Y-92456000D01*
D14*
X143878000Y-96520000D02*
X143878000Y-91440000D01*
D15*
X155605000Y-90130000D02*
X152605000Y-90130000D01*
X155605000Y-97830000D02*
X152605000Y-97830000D01*
X155605000Y-97830000D02*
X155605000Y-90130000D01*
X152604936Y-97830171D02*
G75*
G02*
X152605000Y-90130000I-10352536J3850171D01*
G01*
%TO.C,JSAO1*%
X144160000Y-115120000D02*
X145260000Y-116020000D01*
X145260000Y-115120000D02*
X144160000Y-116020000D01*
X136960000Y-112070000D02*
X149760000Y-112070000D01*
X149760000Y-118570000D01*
X136960000Y-118570000D01*
X136960000Y-112070000D01*
%TD*%
M02*
